<?xml version="1.0" encoding="utf-8"?>
<svg viewBox="0 0 24 24" xmlns="http://www.w3.org/2000/svg">
  <g fill="none" fill-rule="evenodd" transform="matrix(1, -0.001348000019788742, 0, 1, 5, 0.009435000829398632)" style="">
    <g transform="translate(2 18)">
      <mask id="mobile-b" fill="#aaaaaa">
        <polygon points="0 0 0 4 10 4 10 0"/>
      </mask>
      <polygon points="0 0 0 4 10 4 10 0" style="fill-rule: evenodd;" fill="#D8D8D8"/>
      <g fill="#FFA0A0" mask="url(#mobile-b)">
        <rect width="24" height="24" transform="translate(-7 -18)" style="fill-rule: evenodd;"/>
      </g>
    </g>
    <mask id="mobile-d" fill="#ffffff">
      <path d="M2,0 L12,0 C13.1045695,0 14,0.976833273 14,2.18181818 L14,21.8181818 C14,23.0231667 13.1045695,24 12,24 L2,24 C0.8954305,24 0,23.0231667 0,21.8181818 L0,2.18181818 C0,0.976833273 0.8954305,0 2,0 Z M2,2 L2,22 L12,22 L12,2 L2,2 Z M7,21 C6.44771525,21 6,20.5522847 6,20 C6,19.4477153 6.44771525,19 7,19 C7.55228475,19 8,19.4477153 8,20 C8,20.5522847 7.55228475,21 7,21 Z M6,4.5 C5.72385763,4.5 5.5,4.27614237 5.5,4 C5.5,3.72385763 5.72385763,3.5 6,3.5 L8,3.5 C8.27614237,3.5 8.5,3.72385763 8.5,4 C8.5,4.27614237 8.27614237,4.5 8,4.5 L6,4.5 Z"/>
    </mask>
    <path d="M2,0 L12,0 C13.1045695,0 14,0.976833273 14,2.18181818 L14,21.8181818 C14,23.0231667 13.1045695,24 12,24 L2,24 C0.8954305,24 0,23.0231667 0,21.8181818 L0,2.18181818 C0,0.976833273 0.8954305,0 2,0 Z M2,2 L2,22 L12,22 L12,2 L2,2 Z M7,21 C6.44771525,21 6,20.5522847 6,20 C6,19.4477153 6.44771525,19 7,19 C7.55228475,19 8,19.4477153 8,20 C8,20.5522847 7.55228475,21 7,21 Z M6,4.5 C5.72385763,4.5 5.5,4.27614237 5.5,4 C5.5,3.72385763 5.72385763,3.5 6,3.5 L8,3.5 C8.27614237,3.5 8.5,3.72385763 8.5,4 C8.5,4.27614237 8.27614237,4.5 8,4.5 L6,4.5 Z" fill-rule="nonzero" style="fill-rule: evenodd;" fill="#000000"/>
    <g fill="#333333" mask="url(#mobile-d)" transform="matrix(1, 0, 0, 1, 0, -0.021878)">
      <rect width="24" height="24" transform="translate(-5)" style="fill-rule: evenodd;"/>
    </g>
  </g>
</svg>