<?xml version="1.0" encoding="UTF-8" standalone="no"?>
<!-- Uploaded to: SVG Repo, www.svgrepo.com, Generator: SVG Repo Mixer Tools -->

<svg
   width="800px"
   height="800px"
   viewBox="0 0 64 64"
   aria-hidden="true"
   role="img"
   class="iconify iconify--emojione"
   preserveAspectRatio="xMidYMid meet"
   version="1.1"
   id="svg5"
   sodipodi:docname="icon-desktop.svg"
   inkscape:version="1.3.2 (091e20e, 2023-11-25, custom)"
   xmlns:inkscape="http://www.inkscape.org/namespaces/inkscape"
   xmlns:sodipodi="http://sodipodi.sourceforge.net/DTD/sodipodi-0.dtd"
   xmlns:xlink="http://www.w3.org/1999/xlink"
   xmlns="http://www.w3.org/2000/svg"
   xmlns:svg="http://www.w3.org/2000/svg">
  <defs
     id="defs5">
    <linearGradient
       id="linearGradient5"
       inkscape:collect="always">
      <stop
         style="stop-color:#0f3252;stop-opacity:1;"
         offset="0.07"
         id="stop5" />
      <stop
         style="stop-color:#ffffff;stop-opacity:1;"
         offset="1"
         id="stop6" />
    </linearGradient>
    <linearGradient
       inkscape:collect="always"
       xlink:href="#linearGradient5"
       id="linearGradient6"
       x1="4.8542199"
       y1="5.1040068"
       x2="59.200344"
       y2="40.950558"
       gradientUnits="userSpaceOnUse" />
  </defs>
  <sodipodi:namedview
     id="namedview5"
     pagecolor="#ffffff"
     bordercolor="#000000"
     borderopacity="0.25"
     inkscape:showpageshadow="2"
     inkscape:pageopacity="0.0"
     inkscape:pagecheckerboard="0"
     inkscape:deskcolor="#d1d1d1"
     inkscape:zoom="1.46625"
     inkscape:cx="349.53112"
     inkscape:cy="400"
     inkscape:window-width="1624"
     inkscape:window-height="1237"
     inkscape:window-x="988"
     inkscape:window-y="86"
     inkscape:window-maximized="0"
     inkscape:current-layer="svg5" />
  <path
     d="M62 6c0-2-2-4-4-4H6C4 2 2 4 2 6v38h60V6z"
     fill="#212528"
     id="path1" />
  <path
     d="M2 44v4c0 2 2 4 4 4h52c2 0 4-2 4-4v-4H2z"
     fill="#ddd"
     id="path2" />
  <path
     d="M24 54c0 4-4 4-8 4h32c-4 0-8 0-8-4v-2H24v2"
     fill="#bfbebe"
     id="path3" />
  <path
     fill="#3e4347"
     d="M6 6h52v34H6z"
     id="path4"
     style="fill:url(#linearGradient6);fill-opacity:1" />
  <g
     fill="#94989b"
     id="g5">
    <circle
       cx="32"
       cy="47.9"
       r="1"
       id="circle4" />
    <path
       d="M16 58h32v4H16z"
       id="path5" />
  </g>
</svg>
