<?xml version="1.0" encoding="UTF-8" standalone="no"?>
<svg
   viewBox="0 0 24 24"
   version="1.1"
   id="svg5"
   sodipodi:docname="icon-mobile.svg"
   inkscape:export-filename="icon-mobile.svg"
   inkscape:export-xdpi="349.71429"
   inkscape:export-ydpi="349.71429"
   inkscape:version="1.3.2 (091e20e, 2023-11-25, custom)"
   xmlns:inkscape="http://www.inkscape.org/namespaces/inkscape"
   xmlns:sodipodi="http://sodipodi.sourceforge.net/DTD/sodipodi-0.dtd"
   xmlns:xlink="http://www.w3.org/1999/xlink"
   xmlns="http://www.w3.org/2000/svg"
   xmlns:svg="http://www.w3.org/2000/svg">
  <defs
     id="defs5">
    <linearGradient
       id="linearGradient27"
       inkscape:collect="always">
      <stop
         style="stop-color:#0f3151;stop-opacity:1;"
         offset="0.07044768"
         id="stop28" />
      <stop
         style="stop-color:#ffffff;stop-opacity:1;"
         offset="1"
         id="stop29" />
    </linearGradient>
    <linearGradient
       inkscape:collect="always"
       xlink:href="#linearGradient27"
       id="linearGradient29"
       x1="6.2180538"
       y1="1.8084316"
       x2="18.066786"
       y2="19.214836"
       gradientUnits="userSpaceOnUse" />
  </defs>
  <sodipodi:namedview
     id="namedview5"
     pagecolor="#ffffff"
     bordercolor="#000000"
     borderopacity="0.25"
     inkscape:showpageshadow="2"
     inkscape:pageopacity="0.0"
     inkscape:pagecheckerboard="0"
     inkscape:deskcolor="#d1d1d1"
     inkscape:zoom="17.279922"
     inkscape:cx="-2.2280193"
     inkscape:cy="6.7129933"
     inkscape:window-width="1260"
     inkscape:window-height="1096"
     inkscape:window-x="98"
     inkscape:window-y="125"
     inkscape:window-maximized="0"
     inkscape:current-layer="svg5" />
  <rect
     style="fill:url(#linearGradient29);fill-opacity:1;stroke-width:1.0883"
     id="rect5"
     width="11.193747"
     height="17.064022"
     x="6.3106174"
     y="1.6314974"
     transform="matrix(0.99999919,-0.00127358,0.00105049,0.99999945,0,0)"
     inkscape:label="rect5" />
  <g
     fill="none"
     fill-rule="evenodd"
     transform="matrix(1, -0.001348000019788742, 0, 1, 5, 0.009435000829398632)"
     id="g5"
     style="">
    <g
       transform="translate(2 18)"
       id="g3">
      <mask
         id="mobile-b"
         fill="#aaaaaa">
        <polygon
           points="0 0 0 4 10 4 10 0"
           id="polygon1" />
      </mask>
      <polygon
         points="0 0 0 4 10 4 10 0"
         style="fill-rule: evenodd;"
         fill="#D8D8D8"
         id="polygon2" />
      <g
         fill="#FFA0A0"
         mask="url(#mobile-b)"
         id="g2">
        <rect
           width="24"
           height="24"
           transform="translate(-7 -18)"
           style="fill-rule: evenodd;"
           id="rect2" />
      </g>
    </g>
    <mask
       id="mobile-d"
       fill="#ffffff">
      <path
         d="M2,0 L12,0 C13.1045695,0 14,0.976833273 14,2.18181818 L14,21.8181818 C14,23.0231667 13.1045695,24 12,24 L2,24 C0.8954305,24 0,23.0231667 0,21.8181818 L0,2.18181818 C0,0.976833273 0.8954305,0 2,0 Z M2,2 L2,22 L12,22 L12,2 L2,2 Z M7,21 C6.44771525,21 6,20.5522847 6,20 C6,19.4477153 6.44771525,19 7,19 C7.55228475,19 8,19.4477153 8,20 C8,20.5522847 7.55228475,21 7,21 Z M6,4.5 C5.72385763,4.5 5.5,4.27614237 5.5,4 C5.5,3.72385763 5.72385763,3.5 6,3.5 L8,3.5 C8.27614237,3.5 8.5,3.72385763 8.5,4 C8.5,4.27614237 8.27614237,4.5 8,4.5 L6,4.5 Z"
         id="path3" />
    </mask>
    <path
       d="M2,0 L12,0 C13.1045695,0 14,0.976833273 14,2.18181818 L14,21.8181818 C14,23.0231667 13.1045695,24 12,24 L2,24 C0.8954305,24 0,23.0231667 0,21.8181818 L0,2.18181818 C0,0.976833273 0.8954305,0 2,0 Z M2,2 L2,22 L12,22 L12,2 L2,2 Z M7,21 C6.44771525,21 6,20.5522847 6,20 C6,19.4477153 6.44771525,19 7,19 C7.55228475,19 8,19.4477153 8,20 C8,20.5522847 7.55228475,21 7,21 Z M6,4.5 C5.72385763,4.5 5.5,4.27614237 5.5,4 C5.5,3.72385763 5.72385763,3.5 6,3.5 L8,3.5 C8.27614237,3.5 8.5,3.72385763 8.5,4 C8.5,4.27614237 8.27614237,4.5 8,4.5 L6,4.5 Z"
       fill-rule="nonzero"
       style="fill-rule: evenodd;"
       fill="#000000"
       id="path4" />
    <g
       fill="#333333"
       mask="url(#mobile-d)"
       transform="matrix(1, 0, 0, 1, 0, -0.021878)"
       id="g4">
      <rect
         width="24"
         height="24"
         transform="translate(-5)"
         style="fill-rule: evenodd;"
         id="rect4" />
    </g>
  </g>
</svg>
