<svg xmlns:inkscape="http://www.inkscape.org/namespaces/inkscape"
  xmlns:sodipodi="http://sodipodi.sourceforge.net/DTD/sodipodi-0.dtd"
  xmlns="http://www.w3.org/2000/svg" xmlns:svg="http://www.w3.org/2000/svg"
  xmlns:rdf="http://www.w3.org/1999/02/22-rdf-syntax-ns#" xmlns:cc="http://creativecommons.org/ns#"
  xmlns:dc="http://purl.org/dc/elements/1.1/" viewBox="0 0 16.933333 16.933333" version="1.1"
  x="0px" y="0px">
  <g>
    <path style="color:#000000;"
      d="m 8.8658667,0.79376538 c -1.7384,0 -3.406,0.68940002 -4.6354,1.91660002 -1.2295,1.2273 -1.9203,2.8922 -1.9203,4.6279 0,0.5581 0.072,1.1134 0.2125,1.6524 h -0.025 c -0.5418,0 -0.9869,0.4434 -0.9869,0.9849 v 3.5303996 c 0,0.5414 0.4451,0.9848 0.9869,0.9848 h 0.039 v 1.3843 a 0.2645979,0.2645979 0 0 0 0.452,0.1867 l 1.5655,-1.571 h 3.5235 c 0.409,0 0.7627,-0.2528 0.9117,-0.6095 1.6940003,-0.032 3.3124003,-0.7168 4.5128003,-1.9152 1.2295,-1.2271 1.9204,-2.8920996 1.9204,-4.6277996 0,-1.6672 -0.6377,-3.2687 -1.7774,-4.4801 a 0.26457145,0.26457145 0 0 0 -0.021,-0.023 0.26457145,0.26457145 0 0 0 -2e-4,-2e-4 c -0.04,-0.042 -0.081,-0.083 -0.1215,-0.1246 -1.2294,-1.2272 -2.897,-1.91660002 -4.6355003,-1.91660002 z m 0,0.52920002 c 0.1902,0 0.4038,0.1079 0.6362,0.3839 0.2325,0.2759 0.4652,0.7097 0.6635003,1.278 0.1546,0.4431 0.2835,0.9536 0.3839,1.5081 -0.542,0.1574 -1.1084003,0.2396 -1.6836003,0.2396 -0.5752,0 -1.1415,-0.082 -1.6834,-0.2396 0.1002,-0.5545 0.2292,-1.065 0.3838,-1.5081 0.1983,-0.5683 0.431,-1.0021 0.6634,-1.278 0.2325,-0.276 0.446,-0.3839 0.6362,-0.3839 z m 1.0864,0.099 c 1.1682003,0.2136 2.2549003,0.7688 3.1166003,1.6059 -0.582,0.5654 -1.2673,1.0026 -2.0117,1.2926 -0.1025,-0.5472 -0.2338,-1.0564 -0.392,-1.5098 -0.2016,-0.5778 -0.4381,-1.0442 -0.7129003,-1.3887 z m -2.1729,0 c -0.2746,0.3445 -0.5112,0.8109 -0.7127,1.3886 -0.1583,0.4535 -0.2895,0.9627 -0.3921,1.5099 -0.7443,-0.29 -1.4296,-0.7272 -2.0116,-1.2926 0.8617,-0.8371 1.9484,-1.3923 3.1164,-1.6059 z m -3.4797,1.9906 c 0.6588,0.6386 1.4388,1.1268 2.2862,1.4406 -0.1035,0.7008 -0.1625,1.4514 -0.1734,2.2206 h -3.567 c 0.06,-1.3503 0.5726,-2.6398 1.4542,-3.6612 z m 9.1325003,0 c 0.8816,1.0215 1.3947,2.3109 1.4542,3.6612 h -3.5669 c -0.011,-0.7693 -0.07,-1.5198 -0.1735,-2.2206 0.8473,-0.3138 1.6274,-0.802 2.2862,-1.4406 z m -2.7981,1.6063 c 0.092,0.6482 0.1455,1.3434 0.1562,2.0549 H 6.9415667 c 0.011,-0.7115 0.064,-1.4067 0.1562,-2.0549 0.5704,0.1596 1.1647,0.243 1.7681,0.243 0.6034,0 1.1978003,-0.083 1.7682003,-0.243 z m -7.7884003,2.5841 h 3.5665 c 0.01,0.4688 0.032,0.9341 0.074,1.3878 h -3.4146 c -0.1295,-0.4523 -0.2055,-0.9181 -0.2262,-1.3878 z m 4.0957,0 h 3.8489003 c -0.011,0.7114 -0.064,1.4064 -0.1562,2.0545 -0.5602,-0.1567 -1.1437003,-0.2396 -1.7362003,-0.2425 a 0.26457145,0.26457145 0 0 0 -0.011,0 c -0.1789,-0.2563 -0.4761,-0.4252 -0.8102,-0.4252 h -1.059 c -0.044,-0.4524 -0.07,-0.9182 -0.076,-1.3878 z m 4.3781003,0 h 3.5669 c -0.06,1.3502 -0.5725,2.6394996 -1.4539,3.6608996 -0.6588,-0.6385 -1.4391,-1.1264 -2.2865,-1.4402996 0.1034,-0.7008 0.1624,-1.4513 0.1735,-2.2206 z m -8.8226003,1.917 h 0.3656 a 0.26457145,0.26457145 0 0 0 0.025,0 h 5.1892 c 0.2586,0 0.4578,0.199 0.4578,0.4557 v 3.5303996 c 0,0.01 -9e-4,0.018 0,0.027 a 0.26457145,0.26457145 0 0 0 -0.01,0.049 0.26457145,0.26457145 0 0 0 0,0.01 0.26457145,0.26457145 0 0 0 10e-5,0 0.26457145,0.26457145 0 0 0 0,0.024 0.26457145,0.26457145 0 0 0 0,0.01 c -0.049,0.1988 -0.2249,0.3411 -0.4433,0.3411 h -3.6334 a 0.2645979,0.2645979 0 0 0 -0.1874,0.078 l -1.191,1.1952 v -1.0085 a 0.2645979,0.2645979 0 0 0 -0.2647,-0.2646 h -0.3035 c -0.2585,0 -0.4577,-0.199 -0.4577,-0.4556 V 9.9811654 c 0,-0.2566 0.1992,-0.4556 0.4577,-0.4556 z m 6.5661,0.4273 c 0.5075,0.016 1.0066003,0.097 1.4865003,0.2361996 -0.1004,0.5546 -0.2293,1.0651 -0.3839,1.5083 -0.1983003,0.5684 -0.4310003,1.0021 -0.6635003,1.2781 -0.155,0.184 -0.3016,0.293 -0.4384,0.3454 V 9.9756654 c 0,-0.01 -4e-4,-0.019 -7e-4,-0.028 z m 1.9943003,0.4084996 c 0.7446,0.2901 1.4298,0.7275 2.0118,1.2929 -0.8617,0.8372 -1.9485,1.3924 -3.1167003,1.6061 0.2747003,-0.3445 0.5112003,-0.811 0.7128003,-1.3886 0.1582,-0.4537 0.2895,-0.9629 0.3921,-1.5104 z m -7.7810003,0.041 a 0.26457145,0.26457145 0 0 0 -0.2646,0.2645 0.26457145,0.26457145 0 0 0 0.2646,0.2646 h 3.7708 a 0.26457145,0.26457145 0 0 0 0.2646,-0.2646 0.26457145,0.26457145 0 0 0 -0.2646,-0.2645 z m 0,1.6478 a 0.26457145,0.26457145 0 0 0 -0.2646,0.2646 0.26457145,0.26457145 0 0 0 0.2646,0.2645 h 3.7708 a 0.26457145,0.26457145 0 0 0 0.2646,-0.2645 0.26457145,0.26457145 0 0 0 -0.2646,-0.2646 z"
      fill="#000000" stroke-width="0.0086503" stroke-linecap="round" stroke-linejoin="round" />
  </g>
</svg>