<svg xmlns="http://www.w3.org/2000/svg" xmlns:xlink="http://www.w3.org/1999/xlink" version="1.1"
	x="0px" y="0px" viewBox="0 0 66 66" style="enable-background:new 0 0 66 66;"
	xml:space="preserve">
	<path d="M57,19.67H43.61c-0.33-6.72-3.17-13.28-8.35-18.29c-0.52-0.5-1.34-0.5-1.85,0c-5.18,5.01-8.02,11.57-8.35,18.29H9  c-2.21,0-4,1.79-4,4v32c0,2.21,1.79,4,4,4h12.78l-2.67,2.67H17c-0.74,0-1.33,0.6-1.33,1.33c0,0.74,0.6,1.33,1.33,1.33h32  c0.74,0,1.33-0.6,1.33-1.33c0-0.74-0.6-1.33-1.33-1.33h-2.11l-2.67-2.67H57c2.21,0,4-1.79,4-4v-32C61,21.46,59.21,19.67,57,19.67z   M43.29,25.24c3.21,3.76,2.87,7.89,2.87,7.98c-0.9-1.68-2.15-3.16-3.71-4.34C42.82,27.68,43.09,26.47,43.29,25.24z M34.33,4.23  c2.08,2.23,3.66,4.75,4.77,7.43h-9.54C30.67,8.99,32.26,6.46,34.33,4.23z M28.61,14.33h11.44c2.91,9.64-1.53,17.39-2.25,18.67h-6.93  C26.21,24.2,27.87,16.94,28.61,14.33z M26.21,28.89c-1.55,1.18-2.81,2.66-3.71,4.34c0-0.09-0.18-4.48,2.87-7.98  C25.58,26.47,25.84,27.68,26.21,28.89z M22.89,62.33l2.67-2.67h14.9l2.67,2.67H22.89z M58.33,55.67c0,0.73-0.6,1.33-1.33,1.33H9  c-0.74,0-1.33-0.6-1.33-1.33v-4h50.67V55.67z M58.33,49H7.67V23.67c0-0.74,0.6-1.33,1.33-1.33h15.56  c-2.99,2.74-4.72,6.52-4.72,10.62c0,2.05,0.43,4.04,1.27,5.92c0.22,0.49,0.7,0.81,1.22,0.79c0.81-0.04,1.27-0.6,1.33-1.2  c0.27-2.7,1.54-5.14,3.54-6.92c0.51,1.18,1.08,2.35,1.76,3.48c0.24,0.4,0.67,0.64,1.14,0.64h8.46c0.47,0,0.9-0.24,1.14-0.64  c0.69-1.13,1.26-2.3,1.76-3.48c2,1.78,3.14,4.24,3.54,6.92c0.18,1.2,1.26,1.2,1.33,1.2c0.52,0,1-0.3,1.22-0.79  c0.85-1.89,1.27-3.88,1.27-5.92c0-4.1-1.72-7.88-4.72-10.62H57c0.74,0,1.33,0.6,1.33,1.33V49z" />
	<path d="M34.33,37C33.6,37,33,37.6,33,38.33v4c0,0.74,0.6,1.33,1.33,1.33s1.33-0.6,1.33-1.33v-4C35.67,37.6,35.07,37,34.33,37z" />
	<path d="M29,39.67c-0.74,0-1.33,0.6-1.33,1.33v4c0,0.74,0.6,1.33,1.33,1.33c0.74,0,1.33-0.6,1.33-1.33v-4  C30.33,40.26,29.74,39.67,29,39.67z" />
	<path d="M39.67,39.67c-0.74,0-1.33,0.6-1.33,1.33v4c0,0.74,0.6,1.33,1.33,1.33c0.74,0,1.33-0.6,1.33-1.33v-4  C41,40.26,40.4,39.67,39.67,39.67z" />
</svg>