<svg id="Layer_1" data-name="Layer 1" xmlns="http://www.w3.org/2000/svg" viewBox="0 0 48 48">
  <defs>
    <style>
      .cls-1 {
      fill: #000;
      stroke-width: 0px;
      }
    </style>
  </defs>
  <path class="cls-1"
    d="M9,33c-2.761,0-5,2.239-5,5s2.239,5,5,5,5-2.239,5-5-2.239-5-5-5ZM11.707,37.633l-2.526,2.526c-.195.195-.451.293-.707.293s-.512-.098-.707-.293l-1.474-1.473c-.391-.39-.391-1.023,0-1.414s1.023-.391,1.414,0l.767.766,1.819-1.819c.391-.391,1.023-.391,1.414,0s.391,1.024,0,1.414Z"></path>
  <path class="cls-1"
    d="M25,35h-7.22c-.553,0-1,.447-1,1s.447,1,1,1h7.22c.553,0,1-.447,1-1s-.447-1-1-1Z"></path>
  <path class="cls-1"
    d="M25,39h-7.22c-.553,0-1,.447-1,1s.447,1,1,1h7.22c.553,0,1-.447,1-1s-.447-1-1-1Z"></path>
  <path class="cls-1"
    d="M9,19c-2.761,0-5,2.239-5,5s2.239,5,5,5,5-2.239,5-5-2.239-5-5-5ZM11.707,23.633l-2.526,2.526c-.195.195-.451.293-.707.293s-.512-.098-.707-.293l-1.474-1.473c-.391-.39-.391-1.023,0-1.414s1.023-.391,1.414,0l.767.766,1.819-1.819c.391-.391,1.023-.391,1.414,0s.391,1.024,0,1.414Z"></path>
  <path class="cls-1"
    d="M17.78,23h3.239c.553,0,1-.448,1-1s-.447-1-1-1h-3.239c-.553,0-1,.448-1,1s.447,1,1,1Z"></path>
  <path class="cls-1"
    d="M17.78,27h2.26c.553,0,1-.447,1-1s-.447-1-1-1h-2.26c-.553,0-1,.447-1,1s.447,1,1,1Z"></path>
  <path class="cls-1"
    d="M9,5c-2.761,0-5,2.239-5,5s2.239,5,5,5,5-2.239,5-5-2.239-5-5-5ZM11.707,9.633l-2.526,2.526c-.195.195-.451.293-.707.293s-.512-.098-.707-.293l-1.474-1.473c-.391-.39-.391-1.023,0-1.414s1.023-.391,1.414,0l.767.766,1.819-1.819c.391-.391,1.023-.391,1.414,0s.391,1.024,0,1.414Z"></path>
  <path class="cls-1"
    d="M17.78,9h8.22c.553,0,1-.448,1-1s-.447-1-1-1h-8.22c-.553,0-1,.448-1,1s.447,1,1,1Z"></path>
  <path class="cls-1"
    d="M17.78,13h6.779c.553,0,1-.448,1-1s-.447-1-1-1h-6.779c-.553,0-1,.448-1,1s.447,1,1,1Z"></path>
  <path class="cls-1"
    d="M43.95,26.17l-2.664-9.946c-.362-1.35-1.399-2.432-2.745-2.806-.997-.277-2.027-.418-3.062-.418h-2.958c-1.035,0-2.065.141-3.062.418-1.346.374-2.383,1.456-2.745,2.806l-2.664,9.946c-.03.13-.05.26-.05.39,0,.66.44,1.27,1.11,1.45.8.21,1.62-.26,1.84-1.06l2.05-7.651v22.594c0,.996.681,1.92,1.664,2.08,1.253.204,2.336-.758,2.336-1.973v-12c0-.552.448-1,1-1s1,.448,1,1v11.893c0,.996.681,1.92,1.664,2.08,1.253.204,2.336-.758,2.336-1.973v-22.701l2.05,7.651c.22.8,1.04,1.27,1.84,1.06.67-.18,1.11-.79,1.11-1.45,0-.13-.02-.26-.05-.39Z"></path>
  <circle class="cls-1" cx="34" cy="8" r="4"></circle>
</svg>